JetBrainsMono-Thin.ufo
<glyph name="M" format="2">
  <advance width="600"/>
  <unicode hex="004D"/>
  <anchor x="300" y="0" name="bottom"/>
  <anchor x="300" y="730" name="top"/>
  <outline>
    <contour>
      <point x="92" y="0" type="line"/>
      <point x="141" y="0" type="line"/>
      <point x="141" y="440" type="line" smooth="yes"/>
      <point x="141" y="542"/>
      <point x="138" y="651"/>
      <point x="135" y="705" type="curve"/>
      <point x="273" y="325" type="line"/>
      <point x="328" y="325" type="line"/>
      <point x="464" y="705" type="line"/>
      <point x="462" y="651"/>
      <point x="459" y="542"/>
      <point x="459" y="440" type="curve" smooth="yes"/>
      <point x="459" y="0" type="line"/>
      <point x="508" y="0" type="line"/>
      <point x="508" y="730" type="line"/>
      <point x="434" y="730" type="line"/>
      <point x="333" y="450" type="line" smooth="yes"/>
      <point x="322" y="420"/>
      <point x="308" y="381"/>
      <point x="301" y="359" type="curve"/>
      <point x="294" y="381"/>
      <point x="280" y="421"/>
      <point x="269" y="450" type="curve" smooth="yes"/>
      <point x="167" y="730" type="line"/>
      <point x="92" y="730" type="line"/>
    </contour>
  </outline>
</glyph>
<glyph name="V" format="2">
  <advance width="600"/>
  <unicode hex="0056"/>
  <anchor x="300" y="0" name="bottom"/>
  <anchor x="300" y="730" name="top"/>
  <outline>
    <contour>
      <point x="268" y="0" type="line"/>
      <point x="332" y="0" type="line"/>
      <point x="532" y="730" type="line"/>
      <point x="483" y="730" type="line"/>
      <point x="334" y="180" type="line" smooth="yes"/>
      <point x="318" y="122"/>
      <point x="306" y="66"/>
      <point x="301" y="40" type="curve"/>
      <point x="296" y="66"/>
      <point x="285" y="122"/>
      <point x="269" y="180" type="curve" smooth="yes"/>
      <point x="121" y="730" type="line"/>
      <point x="68" y="730" type="line"/>
    </contour>
  </outline>
</glyph>
<glyph name="asciitilde" format="2">
  <advance width="600"/>
  <unicode hex="007E"/>
  <outline>
    <contour>
      <point x="90" y="260" type="line"/>
      <point x="135" y="260" type="line"/>
      <point x="135" y="335" type="line" smooth="yes"/>
      <point x="135" y="378"/>
      <point x="157" y="403"/>
      <point x="195" y="403" type="curve" smooth="yes"/>
      <point x="280" y="403"/>
      <point x="290" y="260"/>
      <point x="410" y="260" type="curve" smooth="yes"/>
      <point x="473" y="260"/>
      <point x="510" y="301"/>
      <point x="510" y="370" type="curve" smooth="yes"/>
      <point x="510" y="445" type="line"/>
      <point x="465" y="445" type="line"/>
      <point x="465" y="370" type="line" smooth="yes"/>
      <point x="465" y="327"/>
      <point x="445" y="302"/>
      <point x="410" y="302" type="curve" smooth="yes"/>
      <point x="321" y="302"/>
      <point x="310" y="445"/>
      <point x="195" y="445" type="curve" smooth="yes"/>
      <point x="130" y="445"/>
      <point x="90" y="403"/>
      <point x="90" y="335" type="curve" smooth="yes"/>
    </contour>
  </outline>
</glyph>
<glyph name="registered" format="2">
  <advance width="600"/>
  <unicode hex="00AE"/>
  <outline>
    <contour>
      <point x="300" y="110" type="curve" smooth="yes"/>
      <point x="449" y="110"/>
      <point x="548" y="205"/>
      <point x="548" y="350" type="curve" smooth="yes"/>
      <point x="548" y="500" type="line" smooth="yes"/>
      <point x="548" y="645"/>
      <point x="449" y="740"/>
      <point x="300" y="740" type="curve" smooth="yes"/>
      <point x="151" y="740"/>
      <point x="52" y="645"/>
      <point x="52" y="500" type="curve" smooth="yes"/>
      <point x="52" y="350" type="line" smooth="yes"/>
      <point x="52" y="205"/>
      <point x="151" y="110"/>
    </contour>
    <contour>
      <point x="95" y="350" type="curve" smooth="yes"/>
      <point x="95" y="500" type="line" smooth="yes"/>
      <point x="95" y="621"/>
      <point x="178" y="702"/>
      <point x="300" y="702" type="curve" smooth="yes"/>
      <point x="422" y="702"/>
      <point x="505" y="621"/>
      <point x="505" y="500" type="curve" smooth="yes"/>
      <point x="505" y="350" type="line" smooth="yes"/>
      <point x="505" y="229"/>
      <point x="422" y="148"/>
      <point x="300" y="148" type="curve" smooth="yes"/>
      <point x="178" y="148"/>
      <point x="95" y="229"/>
    </contour>
    <contour>
      <point x="200" y="250" type="line"/>
      <point x="245" y="250" type="line"/>
      <point x="245" y="395" type="line"/>
      <point x="304.075" y="395" type="line"/>
      <point x="367" y="250" type="line"/>
      <point x="415" y="250" type="line"/>
      <point x="347.152" y="401.941" type="line"/>
      <point x="387.165" y="416.257"/>
      <point x="412" y="451.642"/>
      <point x="412" y="498" type="curve" smooth="yes"/>
      <point x="412" y="560"/>
      <point x="369" y="600"/>
      <point x="305" y="600" type="curve" smooth="yes"/>
      <point x="200" y="600" type="line"/>
    </contour>
    <contour>
      <point x="245" y="435" type="line"/>
      <point x="245" y="560" type="line"/>
      <point x="305" y="560" type="line" smooth="yes"/>
      <point x="346" y="560"/>
      <point x="372" y="536"/>
      <point x="372" y="497" type="curve" smooth="yes"/>
      <point x="372" y="459"/>
      <point x="346" y="435"/>
      <point x="305" y="435" type="curve" smooth="yes"/>
    </contour>
  </outline>
</glyph>
<glyph name="Aogonek" format="2">
  <advance width="600"/>
  <unicode hex="0104"/>
  <anchor x="300" y="0" name="bottom"/>
  <anchor x="495" y="0" name="ogonek"/>
  <anchor x="300" y="730" name="top"/>
  <outline>
    <contour>
      <point x="499" y="-195" type="curve"/>
      <point x="572" y="-195" type="line"/>
      <point x="572" y="-153" type="line"/>
      <point x="508" y="-153" type="line" smooth="yes"/>
      <point x="476" y="-153"/>
      <point x="457" y="-134"/>
      <point x="457" y="-103" type="curve" smooth="yes"/>
      <point x="457" y="-75"/>
      <point x="480" y="-36"/>
      <point x="518" y="0" type="curve" smooth="yes"/>
      <point x="529" y="10" type="line"/>
      <point x="492" y="10" type="line"/>
      <point x="441" y="-27"/>
      <point x="410" y="-74"/>
      <point x="410" y="-115" type="curve" smooth="yes"/>
      <point x="410" y="-165"/>
      <point x="444" y="-195"/>
    </contour>
    <component base="A"/>
  </outline>
</glyph>
<glyph name="Tcedilla" format="2">
  <advance width="600"/>
  <unicode hex="0162"/>
  <anchor x="300" y="0" name="_bottom"/>
  <anchor x="300" y="0" name="bottom"/>
  <anchor x="300" y="365" name="center"/>
  <anchor x="300" y="730" name="top"/>
  <outline>
    <contour>
      <point x="243" y="-195" type="line"/>
      <point x="323" y="-195" type="line" smooth="yes"/>
      <point x="383" y="-195"/>
      <point x="423" y="-161"/>
      <point x="423" y="-118" type="curve" smooth="yes"/>
      <point x="423" y="-61"/>
      <point x="360" y="-37"/>
      <point x="313" y="-34" type="curve"/>
      <point x="326" y="0" type="line"/>
      <point x="294" y="26" type="line"/>
      <point x="259" y="-64" type="line"/>
      <point x="330" y="-64"/>
      <point x="377" y="-86"/>
      <point x="377" y="-118" type="curve" smooth="yes"/>
      <point x="377" y="-140"/>
      <point x="355" y="-160"/>
      <point x="323" y="-160" type="curve" smooth="yes"/>
      <point x="243" y="-160" type="line"/>
    </contour>
    <component base="T"/>
  </outline>
</glyph>
<glyph name="Oogonek" format="2">
  <advance width="600"/>
  <unicode hex="01EA"/>
  <anchor x="320" y="700" name="horn"/>
  <anchor x="300" y="730" name="top"/>
  <outline>
    <contour>
      <point x="369" y="-195" type="curve" smooth="yes"/>
      <point x="442" y="-195" type="line"/>
      <point x="442" y="-153" type="line"/>
      <point x="378" y="-153" type="line" smooth="yes"/>
      <point x="346" y="-153"/>
      <point x="327" y="-134"/>
      <point x="327" y="-103" type="curve" smooth="yes"/>
      <point x="327" y="-75"/>
      <point x="349" y="-33"/>
      <point x="388" y="2" type="curve" smooth="yes"/>
      <point x="397" y="10" type="line"/>
      <point x="459" y="45"/>
      <point x="495" y="105"/>
      <point x="495" y="190" type="curve" smooth="yes"/>
      <point x="495" y="540" type="line" smooth="yes"/>
      <point x="495" y="661"/>
      <point x="418" y="740"/>
      <point x="300" y="740" type="curve" smooth="yes"/>
      <point x="182" y="740"/>
      <point x="105" y="661"/>
      <point x="105" y="540" type="curve" smooth="yes"/>
      <point x="105" y="190" type="line" smooth="yes"/>
      <point x="105" y="68"/>
      <point x="182" y="-10"/>
      <point x="300" y="-10" type="curve" smooth="yes"/>
      <point x="311" y="-10"/>
      <point x="329" y="-9"/>
      <point x="340" y="-6" type="curve"/>
      <point x="302" y="-39"/>
      <point x="280" y="-80"/>
      <point x="280" y="-115" type="curve" smooth="yes"/>
      <point x="280" y="-165"/>
      <point x="314" y="-195"/>
    </contour>
    <contour>
      <point x="300" y="34" type="curve" smooth="yes"/>
      <point x="208" y="34"/>
      <point x="155" y="91"/>
      <point x="155" y="190" type="curve" smooth="yes"/>
      <point x="155" y="540" type="line" smooth="yes"/>
      <point x="155" y="638"/>
      <point x="209" y="696"/>
      <point x="300" y="696" type="curve" smooth="yes"/>
      <point x="391" y="696"/>
      <point x="445" y="638"/>
      <point x="445" y="540" type="curve" smooth="yes"/>
      <point x="445" y="190" type="line" smooth="yes"/>
      <point x="445" y="91"/>
      <point x="392" y="34"/>
    </contour>
  </outline>
</glyph>
<glyph name="dotaccentcomb" format="2">
  <unicode hex="0307"/>
  <anchor x="-300" y="550" name="_top"/>
  <anchor x="-300" y="765" name="top"/>
  <outline>
    <contour>
      <point x="-300" y="655" type="curve" smooth="yes"/>
      <point x="-265" y="655"/>
      <point x="-242" y="677"/>
      <point x="-242" y="710" type="curve" smooth="yes"/>
      <point x="-242" y="743"/>
      <point x="-265" y="765"/>
      <point x="-300" y="765" type="curve" smooth="yes"/>
      <point x="-335" y="765"/>
      <point x="-358" y="743"/>
      <point x="-358" y="710" type="curve" smooth="yes"/>
      <point x="-358" y="677"/>
      <point x="-335" y="655"/>
    </contour>
  </outline>
</glyph>
<glyph name="ringcomb" format="2">
  <unicode hex="030A"/>
  <anchor x="-300" y="550" name="_top"/>
  <anchor x="-300" y="815" name="top"/>
  <outline>
    <contour>
      <point x="-299" y="615" type="curve" smooth="yes"/>
      <point x="-237" y="615"/>
      <point x="-195" y="655"/>
      <point x="-195" y="715" type="curve" smooth="yes"/>
      <point x="-195" y="775"/>
      <point x="-237" y="815"/>
      <point x="-299" y="815" type="curve" smooth="yes"/>
      <point x="-362" y="815"/>
      <point x="-405" y="775"/>
      <point x="-405" y="715" type="curve" smooth="yes"/>
      <point x="-405" y="655"/>
      <point x="-362" y="615"/>
    </contour>
    <contour>
      <point x="-300" y="650" type="curve" smooth="yes"/>
      <point x="-339" y="650"/>
      <point x="-365" y="676"/>
      <point x="-365" y="715" type="curve" smooth="yes"/>
      <point x="-365" y="754"/>
      <point x="-339" y="780"/>
      <point x="-300" y="780" type="curve" smooth="yes"/>
      <point x="-261" y="780"/>
      <point x="-235" y="754"/>
      <point x="-235" y="715" type="curve" smooth="yes"/>
      <point x="-235" y="676"/>
      <point x="-261" y="650"/>
    </contour>
  </outline>
</glyph>
<glyph name="lambda" format="2">
  <advance width="600"/>
  <unicode hex="03BB"/>
  <outline>
    <contour>
      <point x="68" y="0" type="line"/>
      <point x="125" y="0" type="line"/>
      <point x="263" y="357" type="line" smooth="yes"/>
      <point x="280" y="401"/>
      <point x="299" y="455"/>
      <point x="308" y="483" type="curve"/>
      <point x="317" y="455"/>
      <point x="334" y="401"/>
      <point x="350" y="357" type="curve" smooth="yes"/>
      <point x="478" y="0" type="line"/>
      <point x="532" y="0" type="line"/>
      <point x="266" y="730" type="line"/>
      <point x="209" y="730" type="line"/>
      <point x="284" y="539" type="line"/>
    </contour>
  </outline>
</glyph>
<glyph name="pi" format="2">
  <advance width="600"/>
  <unicode hex="03C0"/>
  <outline>
    <contour>
      <point x="517" y="-5" type="curve" smooth="yes"/>
      <point x="545" y="-5" type="line"/>
      <point x="545" y="40" type="line"/>
      <point x="517" y="40" type="line" smooth="yes"/>
      <point x="471" y="40"/>
      <point x="442" y="73"/>
      <point x="442" y="125" type="curve" smooth="yes"/>
      <point x="442" y="505" type="line"/>
      <point x="545" y="505" type="line"/>
      <point x="545" y="550" type="line"/>
      <point x="35" y="550" type="line"/>
      <point x="35" y="505" type="line"/>
      <point x="125" y="505" type="line"/>
      <point x="125" y="0" type="line"/>
      <point x="175" y="0" type="line"/>
      <point x="175" y="505" type="line"/>
      <point x="392" y="505" type="line"/>
      <point x="392" y="125" type="line" smooth="yes"/>
      <point x="392" y="45"/>
      <point x="440" y="-5"/>
    </contour>
  </outline>
</glyph>
<glyph name="sigmafinal" format="2">
  <advance width="600"/>
  <unicode hex="03C2"/>
  <outline>
    <contour>
      <point x="466" y="-180" type="line"/>
      <point x="516" y="-180" type="line"/>
      <point x="516" y="-46" type="line" smooth="yes"/>
      <point x="516" y="10"/>
      <point x="479" y="46"/>
      <point x="419" y="46" type="curve" smooth="yes"/>
      <point x="302" y="46" type="line" smooth="yes"/>
      <point x="211" y="46"/>
      <point x="155" y="104"/>
      <point x="155" y="200" type="curve" smooth="yes"/>
      <point x="155" y="360" type="line" smooth="yes"/>
      <point x="155" y="457"/>
      <point x="211" y="514"/>
      <point x="302" y="514" type="curve" smooth="yes"/>
      <point x="394" y="514"/>
      <point x="450" y="460"/>
      <point x="450" y="370" type="curve"/>
      <point x="500" y="370" type="line"/>
      <point x="500" y="486"/>
      <point x="423" y="560"/>
      <point x="302" y="560" type="curve" smooth="yes"/>
      <point x="182" y="560"/>
      <point x="105" y="481"/>
      <point x="105" y="360" type="curve" smooth="yes"/>
      <point x="105" y="200" type="line" smooth="yes"/>
      <point x="105" y="78"/>
      <point x="181" y="0"/>
      <point x="302" y="0" type="curve" smooth="yes"/>
      <point x="419" y="0" type="line" smooth="yes"/>
      <point x="448" y="0"/>
      <point x="466" y="-18"/>
      <point x="466" y="-46" type="curve" smooth="yes"/>
    </contour>
  </outline>
</glyph>
<glyph name="U-cy" format="2">
  <advance width="600"/>
  <unicode hex="0423"/>
  <anchor x="300" y="730" name="top"/>
  <outline>
    <contour>
      <point x="209" y="0" type="line"/>
      <point x="266" y="0" type="line"/>
      <point x="532" y="730" type="line"/>
      <point x="478" y="730" type="line"/>
      <point x="350" y="373" type="line" smooth="yes"/>
      <point x="334" y="329"/>
      <point x="317" y="275"/>
      <point x="308" y="247" type="curve"/>
      <point x="299" y="275"/>
      <point x="280" y="329"/>
      <point x="263" y="373" type="curve" smooth="yes"/>
      <point x="125" y="730" type="line"/>
      <point x="68" y="730" type="line"/>
      <point x="284" y="191" type="line"/>
    </contour>
  </outline>
</glyph>
<glyph name="em-cy" format="2">
  <advance width="600"/>
  <unicode hex="043C"/>
  <outline>
    <contour>
      <point x="92" y="0" type="line"/>
      <point x="141" y="0" type="line"/>
      <point x="141" y="260" type="line" smooth="yes"/>
      <point x="141" y="362"/>
      <point x="138" y="471"/>
      <point x="135" y="525" type="curve"/>
      <point x="274" y="165" type="line"/>
      <point x="327" y="165" type="line"/>
      <point x="464" y="525" type="line"/>
      <point x="462" y="471"/>
      <point x="459" y="362"/>
      <point x="459" y="260" type="curve" smooth="yes"/>
      <point x="459" y="0" type="line"/>
      <point x="508" y="0" type="line"/>
      <point x="508" y="550" type="line"/>
      <point x="434" y="550" type="line"/>
      <point x="333" y="290" type="line" smooth="yes"/>
      <point x="321" y="260"/>
      <point x="308" y="221"/>
      <point x="301" y="199" type="curve"/>
      <point x="294" y="221"/>
      <point x="281" y="261"/>
      <point x="269" y="290" type="curve" smooth="yes"/>
      <point x="167" y="550" type="line"/>
      <point x="92" y="550" type="line"/>
    </contour>
  </outline>
</glyph>
<glyph name="ustraightstroke-cy" format="2">
  <advance width="600"/>
  <unicode hex="04B1"/>
  <outline>
    <contour>
      <point x="135" y="-45" type="line"/>
      <point x="465" y="-45" type="line"/>
      <point x="465" y="0" type="line"/>
      <point x="135" y="0" type="line"/>
    </contour>
    <component base="gamma"/>
  </outline>
</glyph>
<glyph name="eightsuperior" format="2">
  <advance width="600"/>
  <unicode hex="2078"/>
  <outline>
    <contour>
      <point x="300" y="395" type="curve" smooth="yes"/>
      <point x="388" y="395"/>
      <point x="440" y="436"/>
      <point x="440" y="505" type="curve" smooth="yes"/>
      <point x="440" y="550"/>
      <point x="405" y="593"/>
      <point x="347" y="621" type="curve" smooth="yes"/>
      <point x="259" y="664" type="line" smooth="yes"/>
      <point x="231" y="678"/>
      <point x="215" y="704"/>
      <point x="215" y="735" type="curve" smooth="yes"/>
      <point x="215" y="776"/>
      <point x="247" y="800"/>
      <point x="300" y="800" type="curve" smooth="yes"/>
      <point x="353" y="800"/>
      <point x="385" y="776"/>
      <point x="385" y="735" type="curve" smooth="yes"/>
      <point x="385" y="704"/>
      <point x="368" y="678"/>
      <point x="339" y="664" type="curve" smooth="yes"/>
      <point x="248" y="620" type="line" smooth="yes"/>
      <point x="193" y="593"/>
      <point x="160" y="550"/>
      <point x="160" y="505" type="curve" smooth="yes"/>
      <point x="160" y="436"/>
      <point x="212" y="395"/>
    </contour>
    <contour>
      <point x="300" y="435" type="curve" smooth="yes"/>
      <point x="240" y="435"/>
      <point x="205" y="461"/>
      <point x="205" y="504" type="curve" smooth="yes"/>
      <point x="205" y="540"/>
      <point x="226" y="572"/>
      <point x="261" y="589" type="curve" smooth="yes"/>
      <point x="352" y="632" type="line" smooth="yes"/>
      <point x="401" y="655"/>
      <point x="430" y="694"/>
      <point x="430" y="737" type="curve" smooth="yes"/>
      <point x="430" y="802"/>
      <point x="382" y="840"/>
      <point x="300" y="840" type="curve" smooth="yes"/>
      <point x="218" y="840"/>
      <point x="170" y="802"/>
      <point x="170" y="737" type="curve" smooth="yes"/>
      <point x="170" y="695"/>
      <point x="198" y="657"/>
      <point x="245" y="634" type="curve" smooth="yes"/>
      <point x="334" y="590" type="line" smooth="yes"/>
      <point x="372" y="571"/>
      <point x="395" y="539"/>
      <point x="395" y="504" type="curve" smooth="yes"/>
      <point x="395" y="461"/>
      <point x="360" y="435"/>
    </contour>
  </outline>
</glyph>
<glyph name="numero" format="2">
  <advance width="600"/>
  <unicode hex="2116"/>
  <outline>
    <contour>
      <point x="45" y="0" type="line"/>
      <point x="87" y="0" type="line"/>
      <point x="87" y="550" type="line" smooth="yes"/>
      <point x="87" y="594"/>
      <point x="86" y="644"/>
      <point x="85" y="670" type="curve"/>
      <point x="94" y="634"/>
      <point x="109" y="571"/>
      <point x="121" y="529" type="curve" smooth="yes"/>
      <point x="268" y="0" type="line"/>
      <point x="329" y="0" type="line"/>
      <point x="329" y="730" type="line"/>
      <point x="287" y="730" type="line"/>
      <point x="287" y="180" type="line" smooth="yes"/>
      <point x="287" y="136"/>
      <point x="289" y="85"/>
      <point x="291" y="59" type="curve"/>
      <point x="284" y="90"/>
      <point x="269" y="148"/>
      <point x="257" y="190" type="curve" smooth="yes"/>
      <point x="106" y="730" type="line"/>
      <point x="45" y="730" type="line"/>
    </contour>
    <contour>
      <point x="500" y="300" type="curve" smooth="yes"/>
      <point x="555" y="300"/>
      <point x="590" y="336"/>
      <point x="590" y="390" type="curve" smooth="yes"/>
      <point x="590" y="650" type="line" smooth="yes"/>
      <point x="590" y="704"/>
      <point x="555" y="740"/>
      <point x="500" y="740" type="curve" smooth="yes"/>
      <point x="445" y="740"/>
      <point x="410" y="704"/>
      <point x="410" y="650" type="curve" smooth="yes"/>
      <point x="410" y="390" type="line" smooth="yes"/>
      <point x="410" y="336"/>
      <point x="445" y="300"/>
    </contour>
    <contour>
      <point x="500" y="338" type="curve" smooth="yes"/>
      <point x="472" y="338"/>
      <point x="452" y="360"/>
      <point x="452" y="390" type="curve" smooth="yes"/>
      <point x="452" y="650" type="line" smooth="yes"/>
      <point x="452" y="680"/>
      <point x="472" y="702"/>
      <point x="500" y="702" type="curve" smooth="yes"/>
      <point x="528" y="702"/>
      <point x="548" y="680"/>
      <point x="548" y="650" type="curve" smooth="yes"/>
      <point x="548" y="390" type="line" smooth="yes"/>
      <point x="548" y="360"/>
      <point x="528" y="338"/>
    </contour>
  </outline>
</glyph>
<glyph name="radical" format="2">
  <advance width="600"/>
  <unicode hex="221A"/>
  <outline>
    <contour>
      <point x="292" y="0" type="line"/>
      <point x="351" y="0" type="line"/>
      <point x="577" y="730" type="line"/>
      <point x="525" y="730" type="line"/>
      <point x="345" y="128" type="line" smooth="yes"/>
      <point x="332" y="84"/>
      <point x="326" y="55"/>
      <point x="325" y="45" type="curve"/>
      <point x="321" y="45" type="line"/>
      <point x="320" y="55"/>
      <point x="314" y="84"/>
      <point x="302" y="128" type="curve" smooth="yes"/>
      <point x="187" y="550" type="line"/>
      <point x="30" y="550" type="line"/>
      <point x="30" y="505" type="line"/>
      <point x="153" y="505" type="line"/>
    </contour>
  </outline>
</glyph>
<glyph name="doesnotdivide" format="2">
  <advance width="600"/>
  <unicode hex="2224"/>
  <outline>
    <contour>
      <point x="167" y="140" type="line"/>
      <point x="215" y="140" type="line"/>
      <point x="433" y="590" type="line"/>
      <point x="385" y="590" type="line"/>
    </contour>
    <component base="divides"/>
  </outline>
</glyph>
<glyph name="asymptoticallyequal" format="2">
  <advance width="600"/>
  <unicode hex="2243"/>
  <outline>
    <contour>
      <point x="90" y="195" type="line"/>
      <point x="510" y="195" type="line"/>
      <point x="510" y="240" type="line"/>
      <point x="90" y="240" type="line"/>
    </contour>
    <component base="asciitilde" yOffset="114"/>
  </outline>
</glyph>
<glyph name="colonequals" format="2">
  <advance width="600"/>
  <unicode hex="2254"/>
  <outline>
    <contour>
      <point x="250" y="405" type="line"/>
      <point x="600" y="405" type="line"/>
      <point x="600" y="455" type="line"/>
      <point x="250" y="455" type="line"/>
    </contour>
    <contour>
      <point x="86" y="110" type="curve" smooth="yes"/>
      <point x="130" y="110"/>
      <point x="161" y="139"/>
      <point x="161" y="180" type="curve" smooth="yes"/>
      <point x="161" y="221"/>
      <point x="129" y="250"/>
      <point x="86" y="250" type="curve" smooth="yes"/>
      <point x="42" y="250"/>
      <point x="10" y="221"/>
      <point x="10" y="180" type="curve" smooth="yes"/>
      <point x="10" y="139"/>
      <point x="42" y="110"/>
    </contour>
    <contour>
      <point x="86" y="410" type="curve" smooth="yes"/>
      <point x="130" y="410"/>
      <point x="161" y="439"/>
      <point x="161" y="480" type="curve" smooth="yes"/>
      <point x="161" y="521"/>
      <point x="129" y="550"/>
      <point x="86" y="550" type="curve" smooth="yes"/>
      <point x="42" y="550"/>
      <point x="10" y="521"/>
      <point x="10" y="480" type="curve" smooth="yes"/>
      <point x="10" y="439"/>
      <point x="42" y="410"/>
    </contour>
    <contour>
      <point x="250" y="210" type="line"/>
      <point x="600" y="210" type="line"/>
      <point x="600" y="260" type="line"/>
      <point x="250" y="260" type="line"/>
    </contour>
  </outline>
</glyph>
<glyph name="squareimageof" format="2">
  <advance width="600"/>
  <unicode hex="228F"/>
  <outline>
    <contour>
      <point x="55" y="100" type="line"/>
      <point x="555" y="100" type="line"/>
      <point x="555" y="145" type="line"/>
      <point x="105" y="145" type="line"/>
      <point x="105" y="515" type="line"/>
      <point x="555" y="515" type="line"/>
      <point x="555" y="560" type="line"/>
      <point x="55" y="560" type="line"/>
    </contour>
  </outline>
</glyph>
<glyph name="naryunion" format="2">
  <advance width="600"/>
  <unicode hex="22C3"/>
  <outline>
    <contour>
      <point x="70" y="730" type="line"/>
      <point x="70" y="200" type="line" smooth="yes"/>
      <point x="70" y="70"/>
      <point x="141" y="0"/>
      <point x="273" y="0" type="curve" smooth="yes"/>
      <point x="327" y="0" type="line" smooth="yes"/>
      <point x="459" y="0"/>
      <point x="530" y="70"/>
      <point x="530" y="200" type="curve" smooth="yes"/>
      <point x="530" y="730" type="line"/>
      <point x="480" y="730" type="line"/>
      <point x="480" y="200" type="line" smooth="yes"/>
      <point x="480" y="101"/>
      <point x="424" y="45"/>
      <point x="325" y="45" type="curve" smooth="yes"/>
      <point x="275" y="45" type="line" smooth="yes"/>
      <point x="176" y="45"/>
      <point x="120" y="101"/>
      <point x="120" y="200" type="curve" smooth="yes"/>
      <point x="120" y="730" type="line"/>
    </contour>
  </outline>
</glyph>
<glyph name="doublesubset" format="2">
  <advance width="600"/>
  <unicode hex="22D0"/>
  <outline>
    <contour>
      <point x="275" y="85" type="curve" smooth="yes"/>
      <point x="555" y="85" type="line"/>
      <point x="555" y="130" type="line"/>
      <point x="275" y="130" type="line" smooth="yes"/>
      <point x="175" y="130"/>
      <point x="105" y="194"/>
      <point x="105" y="291" type="curve" smooth="yes"/>
      <point x="105" y="420" type="line" smooth="yes"/>
      <point x="105" y="517"/>
      <point x="175" y="590"/>
      <point x="275" y="590" type="curve" smooth="yes"/>
      <point x="555" y="590" type="line"/>
      <point x="555" y="635" type="line"/>
      <point x="275" y="635" type="line" smooth="yes"/>
      <point x="143" y="635"/>
      <point x="55" y="546"/>
      <point x="55" y="422" type="curve" smooth="yes"/>
      <point x="55" y="289" type="line" smooth="yes"/>
      <point x="55" y="165"/>
      <point x="143" y="85"/>
    </contour>
    <contour>
      <point x="300" y="225" type="curve" smooth="yes"/>
      <point x="555" y="225" type="line"/>
      <point x="555" y="270" type="line"/>
      <point x="300" y="270" type="line" smooth="yes"/>
      <point x="269" y="270"/>
      <point x="250" y="289"/>
      <point x="250" y="320" type="curve" smooth="yes"/>
      <point x="250" y="400" type="line" smooth="yes"/>
      <point x="250" y="431"/>
      <point x="269" y="450"/>
      <point x="300" y="450" type="curve" smooth="yes"/>
      <point x="555" y="450" type="line"/>
      <point x="555" y="495" type="line"/>
      <point x="300" y="495" type="line" smooth="yes"/>
      <point x="237" y="495"/>
      <point x="200" y="460"/>
      <point x="200" y="400" type="curve" smooth="yes"/>
      <point x="200" y="320" type="line" smooth="yes"/>
      <point x="200" y="260"/>
      <point x="237" y="225"/>
    </contour>
  </outline>
</glyph>
<glyph name="house" format="2">
  <advance width="600"/>
  <unicode hex="2302"/>
  <outline>
    <contour>
      <point x="81" y="0" type="line"/>
      <point x="519" y="0" type="line"/>
      <point x="519" y="347" type="line"/>
      <point x="300" y="560" type="line"/>
      <point x="81" y="347" type="line"/>
    </contour>
    <contour>
      <point x="131" y="50" type="line"/>
      <point x="131" y="323" type="line"/>
      <point x="300" y="488" type="line"/>
      <point x="469" y="323" type="line"/>
      <point x="469" y="50" type="line"/>
    </contour>
  </outline>
</glyph>
<glyph name="optionKey" format="2">
  <advance width="600"/>
  <unicode hex="2325"/>
  <outline>
    <contour>
      <point x="385" y="0" type="line"/>
      <point x="590" y="0" type="line"/>
      <point x="590" y="45" type="line"/>
      <point x="420" y="45" type="line"/>
      <point x="215" y="550" type="line"/>
      <point x="10" y="550" type="line"/>
      <point x="10" y="505" type="line"/>
      <point x="180" y="505" type="line"/>
    </contour>
    <contour>
      <point x="386" y="505" type="line"/>
      <point x="590" y="505" type="line"/>
      <point x="590" y="550" type="line"/>
      <point x="386" y="550" type="line"/>
    </contour>
  </outline>
</glyph>
<glyph name="A.half" format="2">
  <advance width="400"/>
  <outline>
    <contour>
      <point x="235" y="206" type="curve" smooth="yes"/>
      <point x="328" y="0" type="line"/>
      <point x="374" y="0" type="line"/>
      <point x="221" y="335" type="line"/>
      <point x="179" y="335" type="line"/>
      <point x="26" y="0" type="line"/>
      <point x="75" y="0" type="line"/>
      <point x="166" y="206" type="line" smooth="yes"/>
      <point x="186" y="252"/>
      <point x="195" y="276"/>
      <point x="200" y="297" type="curve"/>
      <point x="205" y="276"/>
      <point x="215" y="251"/>
    </contour>
    <contour>
      <point x="95" y="114" type="line"/>
      <point x="95" y="75" type="line"/>
      <point x="303" y="75" type="line"/>
      <point x="303" y="114" type="line"/>
    </contour>
  </outline>
</glyph>
<glyph name="N.half" format="2">
  <advance width="400"/>
  <outline>
    <contour>
      <point x="55" y="0" type="line"/>
      <point x="100" y="0" type="line"/>
      <point x="100" y="115" type="line" smooth="yes"/>
      <point x="100" y="218"/>
      <point x="100" y="244"/>
      <point x="89" y="295" type="curve"/>
      <point x="290" y="0" type="line"/>
      <point x="345" y="0" type="line"/>
      <point x="345" y="335" type="line"/>
      <point x="300" y="335" type="line"/>
      <point x="300" y="230" type="line" smooth="yes"/>
      <point x="300" y="127"/>
      <point x="300" y="90"/>
      <point x="311" y="40" type="curve"/>
      <point x="110" y="335" type="line"/>
      <point x="55" y="335" type="line"/>
    </contour>
  </outline>
</glyph>
<glyph name="V.half" format="2">
  <advance width="400"/>
  <outline>
    <contour>
      <point x="165" y="129" type="curve" smooth="yes"/>
      <point x="72" y="335" type="line"/>
      <point x="26" y="335" type="line"/>
      <point x="179" y="0" type="line"/>
      <point x="221" y="0" type="line"/>
      <point x="374" y="335" type="line"/>
      <point x="325" y="335" type="line"/>
      <point x="234" y="129" type="line" smooth="yes"/>
      <point x="214" y="83"/>
      <point x="205" y="59"/>
      <point x="200" y="38" type="curve"/>
      <point x="195" y="59"/>
      <point x="185" y="84"/>
    </contour>
  </outline>
</glyph>
<glyph name="brevecomb_gravecomb" format="2">
  <anchor x="-300" y="550" name="_top"/>
  <anchor x="-300" y="890" name="top"/>
  <outline>
    <contour>
      <point x="-300" y="645" type="curve" smooth="yes"/>
      <point x="-210" y="645"/>
      <point x="-150" y="695"/>
      <point x="-150" y="770" type="curve"/>
      <point x="-195" y="770" type="line"/>
      <point x="-195" y="719"/>
      <point x="-237" y="685"/>
      <point x="-300" y="685" type="curve" smooth="yes"/>
      <point x="-363" y="685"/>
      <point x="-405" y="719"/>
      <point x="-405" y="770" type="curve"/>
      <point x="-450" y="770" type="line"/>
      <point x="-450" y="695"/>
      <point x="-390" y="645"/>
    </contour>
    <contour>
      <point x="-307" y="760" type="line"/>
      <point x="-257" y="760" type="line"/>
      <point x="-367" y="890" type="line"/>
      <point x="-427" y="890" type="line"/>
    </contour>
  </outline>
</glyph>
<glyph name="brevecomb_hookabovecomb.case" format="2">
  <anchor x="-300" y="730" name="_top"/>
  <anchor x="-300" y="1020" name="top"/>
  <outline>
    <contour>
      <point x="-331" y="880" type="line"/>
      <point x="-285" y="880" type="line"/>
      <point x="-254" y="915" type="line" smooth="yes"/>
      <point x="-239" y="932"/>
      <point x="-228" y="952"/>
      <point x="-228" y="971" type="curve" smooth="yes"/>
      <point x="-228" y="1001"/>
      <point x="-253" y="1020"/>
      <point x="-296" y="1020" type="curve" smooth="yes"/>
      <point x="-367" y="1020" type="line"/>
      <point x="-367" y="985" type="line"/>
      <point x="-293" y="985" type="line" smooth="yes"/>
      <point x="-276" y="985"/>
      <point x="-267" y="977"/>
      <point x="-267" y="966" type="curve" smooth="yes"/>
      <point x="-267" y="958"/>
      <point x="-273" y="947"/>
      <point x="-285" y="933" type="curve" smooth="yes"/>
    </contour>
    <contour>
      <point x="-320" y="780" type="curve" smooth="yes"/>
      <point x="-280" y="780" type="line" smooth="yes"/>
      <point x="-202" y="780"/>
      <point x="-150" y="830"/>
      <point x="-150" y="905" type="curve"/>
      <point x="-195" y="905" type="line"/>
      <point x="-195" y="854"/>
      <point x="-229" y="820"/>
      <point x="-280" y="820" type="curve" smooth="yes"/>
      <point x="-320" y="820" type="line" smooth="yes"/>
      <point x="-371" y="820"/>
      <point x="-405" y="854"/>
      <point x="-405" y="905" type="curve"/>
      <point x="-450" y="905" type="line"/>
      <point x="-450" y="830"/>
      <point x="-398" y="780"/>
    </contour>
  </outline>
</glyph>
<glyph name="caroncomb.alt" format="2">
  <anchor x="-350" y="730" name="_top"/>
  <anchor x="-155" y="550" name="_topright"/>
  <outline>
    <contour>
      <point x="-135" y="550" type="line"/>
      <point x="-95" y="550" type="line"/>
      <point x="-75" y="730" type="line"/>
      <point x="-125" y="730" type="line"/>
    </contour>
  </outline>
</glyph>
<glyph name="circumflexcomb_gravecomb.case" format="2">
  <anchor x="-300" y="730" name="_top"/>
  <anchor x="-278" y="1020" name="top"/>
  <outline>
    <contour>
      <point x="-155" y="895" type="line"/>
      <point x="-105" y="895" type="line"/>
      <point x="-214" y="1020" type="line"/>
      <point x="-274" y="1020" type="line"/>
    </contour>
    <contour>
      <point x="-450" y="780" type="line"/>
      <point x="-399" y="780" type="line"/>
      <point x="-300" y="889" type="line"/>
      <point x="-199" y="780" type="line"/>
      <point x="-150" y="780" type="line"/>
      <point x="-270" y="920" type="line"/>
      <point x="-330" y="920" type="line"/>
    </contour>
  </outline>
</glyph>
<glyph name="dieresiscomb.case" format="2">
  <anchor x="-302" y="730" name="_top"/>
  <anchor x="-300" y="935" name="top"/>
  <outline>
    <contour>
      <point x="-192" y="825" type="curve" smooth="yes"/>
      <point x="-161" y="825"/>
      <point x="-141" y="847"/>
      <point x="-141" y="880" type="curve" smooth="yes"/>
      <point x="-141" y="913"/>
      <point x="-161" y="935"/>
      <point x="-192" y="935" type="curve" smooth="yes"/>
      <point x="-224" y="935"/>
      <point x="-245" y="913"/>
      <point x="-245" y="880" type="curve" smooth="yes"/>
      <point x="-245" y="847"/>
      <point x="-224" y="825"/>
    </contour>
    <contour>
      <point x="-407" y="825" type="curve" smooth="yes"/>
      <point x="-376" y="825"/>
      <point x="-355" y="847"/>
      <point x="-355" y="880" type="curve" smooth="yes"/>
      <point x="-355" y="913"/>
      <point x="-376" y="935"/>
      <point x="-407" y="935" type="curve" smooth="yes"/>
      <point x="-438" y="935"/>
      <point x="-459" y="913"/>
      <point x="-459" y="880" type="curve" smooth="yes"/>
      <point x="-459" y="847"/>
      <point x="-438" y="825"/>
    </contour>
  </outline>
</glyph>
<glyph name="equal_greater_greater.liga" format="2">
  <advance width="600"/>
  <outline>
    <contour>
      <point x="-69" y="35" type="line"/>
      <point x="-10" y="35" type="line"/>
      <point x="235" y="331" type="line"/>
      <point x="-9" y="625" type="line"/>
      <point x="-69" y="625" type="line"/>
      <point x="62" y="466" type="line"/>
      <point x="-1105" y="466" type="line"/>
      <point x="-1105" y="421" type="line"/>
      <point x="99" y="421" type="line"/>
      <point x="125" y="389" type="line" smooth="yes"/>
      <point x="153" y="355"/>
      <point x="171" y="336"/>
      <point x="177" y="330" type="curve"/>
      <point x="171" y="324"/>
      <point x="154" y="304"/>
      <point x="128" y="273" type="curve" smooth="yes"/>
      <point x="101" y="240" type="line"/>
      <point x="-1105" y="240" type="line"/>
      <point x="-1105" y="195" type="line"/>
      <point x="63" y="195" type="line"/>
    </contour>
    <contour>
      <point x="211" y="35" type="line"/>
      <point x="270" y="35" type="line"/>
      <point x="515" y="331" type="line"/>
      <point x="271" y="625" type="line"/>
      <point x="211" y="625" type="line"/>
      <point x="405" y="389" type="line" smooth="yes"/>
      <point x="433" y="355"/>
      <point x="451" y="336"/>
      <point x="457" y="330" type="curve"/>
      <point x="451" y="324"/>
      <point x="434" y="304"/>
      <point x="408" y="273" type="curve" smooth="yes"/>
    </contour>
  </outline>
</glyph>
<glyph name="less_bar_greater.liga" format="2">
  <advance width="600"/>
  <outline>
    <contour>
      <point x="-155" y="-86" type="line"/>
      <point x="440" y="306" type="line"/>
      <point x="440" y="360" type="line"/>
      <point x="-155" y="750" type="line"/>
      <point x="-155" y="686" type="line"/>
      <point x="320" y="379" type="line" smooth="yes"/>
      <point x="350" y="360"/>
      <point x="378" y="340"/>
      <point x="391" y="331" type="curve"/>
      <point x="378" y="323"/>
      <point x="350" y="306"/>
      <point x="320" y="286" type="curve" smooth="yes"/>
      <point x="-155" y="-26" type="line"/>
    </contour>
    <contour>
      <point x="-445" y="-86" type="line"/>
      <point x="-445" y="-22" type="line"/>
      <point x="-920" y="285" type="line" smooth="yes"/>
      <point x="-950" y="304"/>
      <point x="-978" y="324"/>
      <point x="-991" y="333" type="curve"/>
      <point x="-978" y="341"/>
      <point x="-950" y="358"/>
      <point x="-920" y="378" type="curve" smooth="yes"/>
      <point x="-445" y="690" type="line"/>
      <point x="-445" y="750" type="line"/>
      <point x="-1040" y="357" type="line"/>
      <point x="-1040" y="304" type="line"/>
    </contour>
    <contour>
      <point x="-325" y="-110" type="line"/>
      <point x="-275" y="-110" type="line"/>
      <point x="-275" y="780" type="line"/>
      <point x="-325" y="780" type="line"/>
    </contour>
  </outline>
</glyph>
<glyph name="less_dollar.liga" format="2">
  <advance width="600"/>
  <outline>
    <contour>
      <point x="265" y="-140" type="line"/>
      <point x="305" y="-140" type="line"/>
      <point x="305" y="-9" type="line"/>
      <point x="423" y="1"/>
      <point x="495" y="70"/>
      <point x="495" y="177" type="curve" smooth="yes"/>
      <point x="495" y="275"/>
      <point x="434" y="354"/>
      <point x="334" y="385" type="curve" smooth="yes"/>
      <point x="305" y="394" type="line"/>
      <point x="305" y="694" type="line"/>
      <point x="385" y="686"/>
      <point x="435" y="630"/>
      <point x="435" y="548" type="curve"/>
      <point x="485" y="548" type="line"/>
      <point x="485" y="660"/>
      <point x="416" y="732"/>
      <point x="305" y="739" type="curve"/>
      <point x="305" y="870" type="line"/>
      <point x="265" y="870" type="line"/>
      <point x="265" y="739" type="line"/>
      <point x="154" y="732"/>
      <point x="85" y="664"/>
      <point x="85" y="559" type="curve" smooth="yes"/>
      <point x="85" y="464"/>
      <point x="142" y="392"/>
      <point x="238" y="363" type="curve" smooth="yes"/>
      <point x="265" y="355" type="line"/>
      <point x="265" y="35" type="line"/>
      <point x="209" y="37"/>
      <point x="147" y="50"/>
      <point x="90" y="77" type="curve" smooth="yes"/>
      <point x="-376" y="299" type="line" smooth="yes"/>
      <point x="-404" y="312"/>
      <point x="-440" y="325"/>
      <point x="-458" y="331" type="curve"/>
      <point x="-439" y="340"/>
      <point x="-404" y="358"/>
      <point x="-376" y="373" type="curve" smooth="yes"/>
      <point x="-85" y="527" type="line"/>
      <point x="-85" y="580" type="line"/>
      <point x="-505" y="353" type="line"/>
      <point x="-505" y="307" type="line"/>
      <point x="75" y="34" type="line" smooth="yes"/>
      <point x="134" y="6"/>
      <point x="203" y="-8"/>
      <point x="265" y="-10" type="curve"/>
    </contour>
    <contour>
      <point x="305" y="37" type="curve"/>
      <point x="305" y="343" type="line"/>
      <point x="322" y="338" type="line" smooth="yes"/>
      <point x="398" y="315"/>
      <point x="445" y="254"/>
      <point x="445" y="177" type="curve" smooth="yes"/>
      <point x="445" y="101"/>
      <point x="390" y="47"/>
    </contour>
    <contour>
      <point x="265" y="406" type="line"/>
      <point x="250" y="411" type="line" smooth="yes"/>
      <point x="179" y="433"/>
      <point x="135" y="491"/>
      <point x="135" y="563" type="curve" smooth="yes"/>
      <point x="135" y="639"/>
      <point x="184" y="687"/>
      <point x="265" y="694" type="curve"/>
    </contour>
  </outline>
</glyph>
<glyph name="less_equal_equal_greater.liga" format="2">
  <advance width="600"/>
  <outline>
    <contour>
      <point x="-1461" y="35" type="line"/>
      <point x="-1402" y="35" type="line"/>
      <point x="-1536" y="195" type="line"/>
      <point x="343" y="195" type="line"/>
      <point x="211" y="35" type="line"/>
      <point x="270" y="35" type="line"/>
      <point x="515" y="331" type="line"/>
      <point x="271" y="625" type="line"/>
      <point x="211" y="625" type="line"/>
      <point x="342" y="466" type="line"/>
      <point x="-1533" y="466" type="line"/>
      <point x="-1401" y="625" type="line"/>
      <point x="-1460" y="625" type="line"/>
      <point x="-1705" y="330" type="line"/>
    </contour>
    <contour>
      <point x="-1573" y="240" type="line"/>
      <point x="-1646" y="330" type="line"/>
      <point x="-1571" y="421" type="line"/>
      <point x="379" y="421" type="line"/>
      <point x="453" y="330" type="line"/>
      <point x="381" y="240" type="line"/>
    </contour>
  </outline>
</glyph>
<glyph name="less_greater.liga" format="2">
  <advance width="600"/>
  <outline>
    <contour>
      <point x="0" y="40" type="line"/>
      <point x="450" y="300" type="line"/>
      <point x="450" y="360" type="line"/>
      <point x="0" y="620" type="line"/>
      <point x="-450" y="360" type="line"/>
      <point x="-450" y="300" type="line"/>
    </contour>
    <contour>
      <point x="2" y="97" type="line"/>
      <point x="-358" y="305" type="line" smooth="yes"/>
      <point x="-381" y="318"/>
      <point x="-402" y="328"/>
      <point x="-411" y="331" type="curve"/>
      <point x="-402" y="335"/>
      <point x="-381" y="346"/>
      <point x="-358" y="359" type="curve" smooth="yes"/>
      <point x="1" y="564" type="line"/>
      <point x="360" y="358" type="line" smooth="yes"/>
      <point x="383" y="345"/>
      <point x="405" y="333"/>
      <point x="415" y="328" type="curve"/>
      <point x="406" y="323"/>
      <point x="384" y="312"/>
      <point x="358" y="297" type="curve" smooth="yes"/>
    </contour>
  </outline>
</glyph>
<glyph name="less_hyphen_hyphen.liga" format="2">
  <advance width="600"/>
  <outline>
    <contour>
      <point x="-871" y="35" type="line"/>
      <point x="-812" y="35" type="line"/>
      <point x="-1009" y="271" type="line" smooth="yes"/>
      <point x="-1022" y="286"/>
      <point x="-1032" y="299"/>
      <point x="-1040" y="308" type="curve"/>
      <point x="505" y="308" type="line"/>
      <point x="505" y="353" type="line"/>
      <point x="-1038" y="353" type="line"/>
      <point x="-1030" y="362"/>
      <point x="-1020" y="373"/>
      <point x="-1009" y="387" type="curve" smooth="yes"/>
      <point x="-811" y="625" type="line"/>
      <point x="-870" y="625" type="line"/>
      <point x="-1115" y="330" type="line"/>
    </contour>
  </outline>
</glyph>
<glyph name="less_less_equal.liga" format="2">
  <advance width="600"/>
  <outline>
    <contour>
      <point x="-591" y="35" type="line"/>
      <point x="-532" y="35" type="line"/>
      <point x="-666" y="195" type="line"/>
      <point x="505" y="195" type="line"/>
      <point x="505" y="240" type="line"/>
      <point x="-703" y="240" type="line"/>
      <point x="-778" y="330" type="line"/>
      <point x="-701" y="421" type="line"/>
      <point x="505" y="421" type="line"/>
      <point x="505" y="466" type="line"/>
      <point x="-663" y="466" type="line"/>
      <point x="-531" y="625" type="line"/>
      <point x="-590" y="625" type="line"/>
      <point x="-835" y="330" type="line"/>
    </contour>
    <contour>
      <point x="-871" y="35" type="line"/>
      <point x="-812" y="35" type="line"/>
      <point x="-1057" y="330" type="line"/>
      <point x="-811" y="625" type="line"/>
      <point x="-870" y="625" type="line"/>
      <point x="-1115" y="330" type="line"/>
    </contour>
  </outline>
</glyph>
<glyph name="one.half" format="2">
  <advance width="400"/>
  <outline>
    <contour>
      <point x="70" y="0" type="line"/>
      <point x="350" y="0" type="line"/>
      <point x="350" y="40" type="line"/>
      <point x="244" y="40" type="line"/>
      <point x="244" y="335" type="line"/>
      <point x="177" y="335" type="line"/>
      <point x="78" y="256" type="line"/>
      <point x="78" y="205" type="line"/>
      <point x="199" y="300" type="line"/>
      <point x="199" y="40" type="line"/>
      <point x="70" y="40" type="line"/>
    </contour>
  </outline>
</glyph>
